<?xml version="1.0" standalone="no"?>
<!DOCTYPE svg PUBLIC "-//W3C//DTD SVG 20010904//EN"
 "http://www.w3.org/TR/2001/REC-SVG-20010904/DTD/svg10.dtd">
<svg version="1.0" xmlns="http://www.w3.org/2000/svg"
 width="512.000000pt" height="512.000000pt" viewBox="0 0 512.000000 512.000000"
 preserveAspectRatio="xMidYMid meet">

<g transform="translate(0.000000,512.000000) scale(0.100000,-0.100000)"
fill="#000000" stroke="none">
<path d="M0 2560 l0 -2560 2560 0 2560 0 0 2560 0 2560 -2560 0 -2560 0 0
-2560z m1691 905 c243 -374 459 -708 480 -741 l39 -62 -482 -743 c-266 -409
-487 -743 -493 -743 -11 -1 -263 383 -264 403 -1 7 152 250 340 539 187 289
343 531 346 538 2 7 -152 255 -344 550 -191 296 -347 541 -346 545 9 28 268
408 274 402 4 -4 207 -314 450 -688z m2299 370 l0 -295 -890 0 -890 0 0 295 0
295 890 0 890 0 0 -295z m0 -1170 l0 -295 -625 0 -625 0 0 295 0 295 625 0
625 0 0 -295z m0 -1170 l0 -295 -890 0 -890 0 0 295 0 295 890 0 890 0 0 -295z"/>
</g>
</svg>
